#tb 0: 1/25
0,          0,          0,        1,   149760, 0x88619f80
0,          1,          1,        1,   149760, 0x550bdaf0
0,          2,          2,        1,   149760, 0x4121f7a2
0,          3,          3,        1,   149760, 0x210b1d07
0,          4,          4,        1,   149760, 0x731b7758
0,          5,          5,        1,   149760, 0x17adb789
0,          6,          6,        1,   149760, 0x98b2f080
0,          7,          7,        1,   149760, 0xc0be1f2a
0,          8,          8,        1,   149760, 0xc01e387a
0,          9,          9,        1,   149760, 0xd932822b
0,         10,         10,        1,   149760, 0x16c0a1df
0,         11,         11,        1,   149760, 0x5aa6c005
0,         12,         12,        1,   149760, 0xd3aab602
0,         13,         13,        1,   149760, 0x4e6ecab1
0,         14,         14,        1,   149760, 0x8a86f1f2
0,         15,         15,        1,   149760, 0x2ed21e1b
0,         16,         16,        1,   149760, 0x80892f24
0,         17,         17,        1,   149760, 0xb8a952ef
0,         18,         18,        1,   149760, 0x557e57fb
0,         19,         19,        1,   149760, 0x2b825b2c
0,         20,         20,        1,   149760, 0x30b69b5e
0,         21,         21,        1,   149760, 0x802ebf08
0,         22,         22,        1,   149760, 0x95aadc8e
0,         23,         23,        1,   149760, 0x4d4c02b7
0,         24,         24,        1,   149760, 0x3fdd1762
